<svg xmlns="http://www.w3.org/2000/svg" viewBox="0 0 512 512">
    <defs>
        <style>
            .cls-1{fill:#fff;}
            .cls-2{fill:#808080;}
            .cls-3{fill:#4d4d4d;}
            .cls-4{fill:#000;}
        </style>
    </defs>
    <g id="Dog_Head">
        <path class="cls-1" d="M256,34.3L179.5,105.4l27.3,67.5l-35.6,46.9l-70.4,37.5l33.8,66.6l46.6,75.5l74.8,64.3 l74.8-64.3l46.6-75.5l33.8-66.6l-70.4-37.5l-35.6-46.9l27.3-67.5L256,34.3z"/>
        <path class="cls-2" d="M206.8,172.9l49.2-67.5l49.2,67.5l-38.7,49.4L256,208.1l-10.5,14.2L206.8,172.9z"/>
        <path class="cls-3" d="M143.9,222.3l-27.3,37.5l33.8,66.6l56.4,30.1l-23.4-45.8L143.9,222.3z"/>
        <path class="cls-3" d="M368.1,222.3l27.3,37.5l-33.8,66.6l-56.4,30.1l23.4-45.8L368.1,222.3z"/>
        <path class="cls-4" d="M256,478.7L256,478.7l-78.4-67.3l-48.8-79.1l-35.5-69.9l73.8-39.3l37.3-49.1l-28.6-70.7 L256,27.3l79.2,75.9l-28.6,70.7l37.3,49.1l73.8,39.3l-35.5,69.9l-48.8,79.1L256,478.7z M183.4,109L210,174.6l-47.4,62.4 l-67.5,36l32.4,63.8l44.7,72.4l73.8,63.4v0l73.8-63.4l44.7-72.4l32.4-63.8l-67.5-36l-47.4-62.4l26.6-65.6L256,41.4L183.4,109z"/>
        <path class="cls-4" d="M256,408.9l-72.5-38.7v-47.8l24.2-31.8l48.3,38.1l48.3-38.1l24.2,31.8v47.8L256,408.9z M193.5,327.8 v37.9l62.5,33.4l62.5-33.4v-37.9l-19.5-25.6l-43,33.9L213,302.2L193.5,327.8z"/>
        <path class="cls-4" d="M231.8,336.7l-24.2,19.1l-24.2-19.1v-25.3l24.2-19.1l24.2,19.1V336.7z M193.5,327.8l14.2,11.2 l14.2-11.2v-13.1l-14.2-11.2l-14.2,11.2V327.8z"/>
        <path class="cls-4" d="M328.2,336.7l-24.2,19.1l-24.2-19.1v-25.3l24.2-19.1l24.2,19.1V336.7z M289.9,327.8l14.2,11.2 l14.2-11.2v-13.1l-14.2-11.2l-14.2,11.2V327.8z"/>
    </g>
    <g id="Tech_Cube">
        <rect class="cls-4" x="222.5" y="292.5" width="67" height="67" transform="translate(-147.8 347.5) rotate(-45)"/>
        <g>
            <line class="cls-1" x1="256" y1="314.8" x2="256" y2="363.1"/>
            <line class="cls-1" x1="231.9" y1="338.9" x2="280.1" y2="338.9"/>
            <rect class="cls-1" x="245.6" y="328.5" width="20.8" height="20.8"/>
            <circle class="cls-4" cx="256" cy="338.9" r="3.8"/>
        </g>
    </g>
</svg>
